# xmcd
#
# Track frame offsets:
#	151
#	7977
#	22132
#	30475
#	39281
#	51183
#	65237
#	77984
#	92291
#	103631
#	125789
#	138974
#	152427
#	161372
#	176572
#	189310
#	200398
#	216899
#	226680
#	245411
#	256978
#	273306
#
# Disc length: 3846 seconds
#
# Revision: 1
# Processed by: cddbd v1.4PL0 Copyright (c) Steve Scherf et al.
# Submitted via: audiograbber 1.82.02
#
DISCID=1e0f0416
DTITLE=Welsh Artists - Seasons Greetings from Wales
DYEAR=2003
DGENRE=Welsh
TTITLE0=Richard Williams Singers - Joy to the World
TTITLE1=Risca MVC - Christmas Song
TTITLE2=Pontarddulais MVC - Christmas is Coming
TTITLE3=Zoe Rasmussen - Have yourself a merry little christmas
TTITLE4=Llions Daniel - Cwyn y Gwynt
TTITLE5=Richard Williams Singers - Silent Night
TTITLE6=Ty-Sign Junior School - A Little Child is Born
TTITLE7=Pontarddulais MVC - Song of Hope
TTITLE8=Llinos Daniel - Si-Lw, Di Febyn Bachan Bach
TTITLE9=Richard Williams Singers - Sleep Little Prince
TTITLE10=Risca MVC - Carol of the Drum
TTITLE11=Pontarddulais MVC - Suo Gan
TTITLE12=Zoe Rasmussen - Silent Night
TTITLE13=Richard Williams Singers - A Huron Carol
TTITLE14=Ty-Sign Junior School - A L nanita nana
TTITLE15=Risca MVC - Sleigh Ride
TTITLE16=Zoe Rasmussen - Walking in the Air
TTITLE17=Llinos Daniel - Troyte's Chant
TTITLE18=Richard Williams Singers - O Holy Night
TTITLE19=Pontardulais MVC - Dawel Nos
TTITLE20=Risca MVC - Have yourself a merry little christmas
TTITLE21=Richard Williams Singers - Little Town
EXTD=
EXTT0=
EXTT1=
EXTT2=
EXTT3=
EXTT4=
EXTT5=
EXTT6=
EXTT7=
EXTT8=
EXTT9=
EXTT10=
EXTT11=
EXTT12=
EXTT13=
EXTT14=
EXTT15=
EXTT16=
EXTT17=
EXTT18=
EXTT19=
EXTT20=
EXTT21=
PLAYORDER=
